<svg preserveAspectRatio="none" overflow="visible" style="display: block;" width="339.557" height="708.878" viewBox="0 0 339.557 708.878" fill="none" xmlns="http://www.w3.org/2000/svg">
<path id="Vector" d="M291.511 0H48.0459C21.5183 0 0 21.5183 0 48.0459V660.832C0 687.36 21.5183 708.878 48.0459 708.878H291.511C318.039 708.878 339.557 687.36 339.557 660.832V48.0459C339.557 21.5183 318.039 0 291.511 0ZM334.895 659.151C334.895 684.033 314.712 704.216 289.83 704.216H49.7462C24.864 704.216 4.68027 684.033 4.68027 659.151V49.7279C4.68027 24.8457 24.864 4.66199 49.7462 4.66199H289.83C314.712 4.66199 334.895 24.8457 334.895 49.7279V659.151Z" fill="black"/>
</svg>
