<svg preserveAspectRatio="none" overflow="visible" style="display: block;" width="57.227" height="62.1426" viewBox="0 0 57.227 62.1426" fill="none" xmlns="http://www.w3.org/2000/svg">
<g id="Group 1996">
<path id="leaf" d="M27.5051 0.186501C29.7246 -0.220412 31.7542 0.0537696 33.4524 0.860329C34.119 1.17496 34.7417 1.56673 35.2961 2.04295C35.4542 2.2066 35.6185 2.36601 35.7942 2.51267C36.5587 3.1534 37.4732 3.6119 38.4631 3.83982L38.4866 11.6084C43.7363 8.82645 50.6153 9.74339 54.8059 14.6689C56.2683 16.3878 57.0461 18.2831 57.1965 20.1572C57.2574 20.8919 57.2292 21.6264 57.094 22.3447C57.0313 22.5634 56.975 22.7853 56.9358 23.0107C56.7632 23.9933 56.8237 25.015 57.1213 25.9863L50.4045 29.8906C55.439 33.046 58.0848 39.4615 55.9143 45.5537C55.1569 47.6796 53.9045 49.3008 52.3567 50.3681C51.7508 50.7882 51.1001 51.131 50.4104 51.373C50.1897 51.428 49.9699 51.4905 49.7551 51.5693C48.8179 51.9111 47.9631 52.4743 47.2707 53.2178L40.5305 49.3535C40.3148 55.2908 36.0828 60.7896 29.7219 61.956C27.5022 62.363 25.472 62.089 23.7737 61.2822C23.1069 60.9675 22.4845 60.5759 21.9299 60.0996C21.772 59.936 21.6084 59.7765 21.4329 59.6299C20.6682 58.9891 19.7529 58.5306 18.7629 58.3027L18.7385 50.5332C13.4888 53.3147 6.61061 52.3992 2.42016 47.4736C0.957841 45.7547 0.180969 43.8595 0.0305109 41.9853C-0.0303324 41.2506 -0.00218272 40.5162 0.13305 39.7978C0.195771 39.5791 0.251092 39.3573 0.290277 39.1318C0.462905 38.1492 0.403342 37.1276 0.105706 36.1562L6.82153 32.251C1.78762 29.0954 -0.858595 22.6807 1.31176 16.5888C2.06917 14.463 3.3216 12.8418 4.86938 11.7744C5.47528 11.3543 6.1259 11.0116 6.81567 10.7695C7.03634 10.7145 7.25616 10.652 7.47094 10.5732C8.4082 10.2314 9.26294 9.6682 9.95532 8.92478L16.6946 12.7881C16.9108 6.85107 21.1444 1.35273 27.5051 0.186501ZM32.8645 20.5937C32.0896 21.1489 31.247 21.6247 30.345 22.0058L29.05 25.6406L24.3127 22.9258C23.3639 22.8003 22.4754 22.5381 21.6643 22.1504C21.7577 23.0992 21.7492 24.067 21.6282 25.039L24.1282 27.9775L19.4094 30.7217C18.8262 31.4811 18.154 32.1191 17.4123 32.6279C18.2808 33.0213 19.1145 33.5128 19.8957 34.1035L23.6916 33.4082L23.7092 38.8672C24.0751 39.7516 24.2907 40.6525 24.3606 41.5488C25.1357 40.9933 25.9787 40.517 26.8811 40.1357L28.176 36.5019L32.9123 39.2158C33.8611 39.3411 34.7497 39.6037 35.5608 39.9912C35.4675 39.0427 35.4769 38.0751 35.5979 37.1035L33.0979 34.165L37.8157 31.4199C38.3986 30.6608 39.0705 30.0224 39.8118 29.5136C38.9439 29.1203 38.1111 28.6285 37.3303 28.0381L33.5354 28.7344L33.5168 23.2744C33.1512 22.3902 32.9344 21.4897 32.8645 20.5937Z" fill="url(#paint0_radial_0_45)" fill-opacity="0.9"/>
<ellipse id="Ellipse 22" cx="28.619" cy="31.0802" rx="14.7706" ry="14.7706" transform="rotate(-180 28.619 31.0802)" fill="white"/>
</g>
<defs>
<radialGradient id="paint0_radial_0_45" cx="0" cy="0" r="1" gradientUnits="userSpaceOnUse" gradientTransform="translate(28.6135 31.0713) rotate(90) scale(31.0713 28.6135)">
<stop stop-color="white" stop-opacity="0"/>
<stop offset="1" stop-color="white"/>
</radialGradient>
</defs>
</svg>
