<svg preserveAspectRatio="none" overflow="visible" style="display: block;" width="13.4541" height="12.8319" viewBox="0 0 13.4541 12.8319" fill="none" xmlns="http://www.w3.org/2000/svg">
<path id="Vector" d="M12.923 9.20541C12.923 9.53406 12.7924 9.84925 12.56 10.0816C12.3276 10.314 12.0124 10.4446 11.6838 10.4446H3.52248C3.19386 10.4447 2.87872 10.5753 2.64638 10.8077L1.28203 12.172C1.22051 12.2335 1.14213 12.2754 1.0568 12.2924C0.971473 12.3094 0.88303 12.3007 0.802654 12.2674C0.722277 12.2341 0.653577 12.1777 0.605238 12.1054C0.556899 12.033 0.531092 11.948 0.531081 11.861V1.77027C0.531081 1.44162 0.661638 1.12642 0.894031 0.894031C1.12642 0.661638 1.44162 0.531081 1.77027 0.531081H11.6838C12.0124 0.531081 12.3276 0.661638 12.56 0.894031C12.7924 1.12642 12.923 1.44162 12.923 1.77027V9.20541Z" stroke="#F2F2F2" stroke-width="1.06216" stroke-linecap="round" stroke-linejoin="round"/>
</svg>
