<svg preserveAspectRatio="none" overflow="visible" style="display: block;" width="18.5" height="18.5" viewBox="0 0 18.5 18.5" fill="none" xmlns="http://www.w3.org/2000/svg">
<path id="Vector" d="M13.8333 9.25V12.9167C13.8333 13.1598 13.7368 13.3929 13.5648 13.5648C13.3929 13.7368 13.1598 13.8333 12.9167 13.8333H9.25M13.8333 1H15.6667C16.1529 1 16.6192 1.19315 16.963 1.53697C17.3068 1.88079 17.5 2.3471 17.5 2.83333V4.66667M13.8333 5.58333V4.66667M17.5 13.8333V15.6667C17.5 16.1529 17.3068 16.6192 16.963 16.963C16.6192 17.3068 16.1529 17.5 15.6667 17.5H13.8333M1 4.66667V2.83333C1 2.3471 1.19315 1.88079 1.53697 1.53697C1.88079 1.19315 2.3471 1 2.83333 1H4.66667M4.66667 13.8333H4.67583M4.66667 17.5H2.83333C2.3471 17.5 1.88079 17.3068 1.53697 16.963C1.19315 16.6192 1 16.1529 1 15.6667V13.8333M5.58333 4.66667H8.33333C8.83959 4.66667 9.25 5.07707 9.25 5.58333V8.33333C9.25 8.83959 8.83959 9.25 8.33333 9.25H5.58333C5.07707 9.25 4.66667 8.83959 4.66667 8.33333V5.58333C4.66667 5.07707 5.07707 4.66667 5.58333 4.66667Z" stroke="#A3A3A3" stroke-width="2" stroke-linecap="round" stroke-linejoin="round"/>
</svg>
